<?xml version="1.0" encoding="UTF-8" standalone="no"?><svg width="30" height="30" viewBox="0 0 30 30" fill="none" xmlns="http://www.w3.org/2000/svg">
<path fill-rule="evenodd" clip-rule="evenodd" d="M19.3647 25.0234C19.3984 25.2034 19.2971 25.3946 19.1284 25.4621C17.8572 25.9684 16.4622 26.2384 15.0223 26.2384C12.5361 26.2384 10.2411 25.4396 8.38487 24.0672C8.22737 23.9547 8.18241 23.7297 8.28366 23.5609C8.9024 22.4584 11.321 18.9148 16.6647 16.9348C16.8672 16.8561 17.0922 16.9573 17.1597 17.1598C18.4984 20.7485 19.1284 23.7859 19.3647 25.0234Z" fill="white" fill-opacity="0.86"/>
<path fill-rule="evenodd" clip-rule="evenodd" d="M26.0471 17.1148C25.5296 19.8823 23.9771 22.2897 21.8059 23.9322C21.5697 24.1122 21.2322 23.9772 21.1759 23.6959C20.9397 22.481 20.3659 19.8598 19.2634 16.7436C19.1847 16.5073 19.3422 16.2486 19.5897 16.2148C22.3909 15.8773 24.8434 16.4173 25.7659 16.6648C25.9571 16.7323 26.0808 16.9236 26.0471 17.1148Z" fill="white" fill-opacity="0.86"/>
<path fill-rule="evenodd" clip-rule="evenodd" d="M25.7884 14.786C24.6409 14.5835 21.7159 14.156 18.7235 14.4823C18.5435 14.5048 18.386 14.4035 18.3073 14.2348C18.2623 14.1335 18.2285 14.0323 18.1835 13.931C18.0035 13.5148 17.8123 13.0873 17.621 12.6711C17.5198 12.4686 17.621 12.2211 17.8235 12.1311C20.9735 10.7698 22.7284 9.01487 23.4146 8.22739C23.5834 8.03614 23.8759 8.04741 24.0334 8.24991C25.3271 9.97113 26.1258 12.0748 26.2496 14.3473C26.2608 14.6285 26.0359 14.831 25.7884 14.786Z" fill="white" fill-opacity="0.86"/>
<path fill-rule="evenodd" clip-rule="evenodd" d="M22.2447 6.87744C21.6597 7.58617 20.0172 9.27362 16.901 10.5111C16.721 10.5898 16.5073 10.5111 16.406 10.3311C14.9661 7.72115 13.4361 5.52744 12.7273 4.53746C12.5586 4.30122 12.6936 3.96374 12.9749 3.91874C13.6273 3.80624 14.3136 3.75 15.0111 3.75C17.7335 3.75 20.2422 4.71747 22.1884 6.33744C22.3572 6.46118 22.3797 6.70869 22.2447 6.87744Z" fill="white" fill-opacity="0.86"/>
<path fill-rule="evenodd" clip-rule="evenodd" d="M13.8973 11.4337C9.63366 12.5024 5.86493 12.6486 4.49246 12.6711C4.23371 12.6711 4.04251 12.4236 4.11 12.1761C4.91999 9.02621 7.07993 6.39376 9.92612 4.94254C10.0949 4.85254 10.3086 4.90878 10.4211 5.06627C11.0061 5.87626 12.5923 8.15998 14.1448 10.8487C14.2685 11.0737 14.1561 11.3662 13.8973 11.4337Z" fill="white" fill-opacity="0.86"/>
<path fill-rule="evenodd" clip-rule="evenodd" d="M16.0347 14.5386C16.136 14.7523 16.0123 15.0111 15.7873 15.0898C10.8036 16.6985 7.82243 20.6922 6.92245 22.0647C6.7762 22.2897 6.46121 22.301 6.29246 22.0985C4.71749 20.1635 3.76126 17.9473 3.76126 15.2586V15.0561C3.76126 14.8311 3.94124 14.6511 4.16624 14.6623C5.58371 14.7186 10.2074 14.5273 15.011 13.1436C15.191 13.0874 15.3935 13.1774 15.4723 13.3461C15.6635 13.7399 15.8547 14.1336 16.0347 14.5386Z" fill="white" fill-opacity="0.86"/>
</svg>
