<?xml version="1.0" encoding="UTF-8" standalone="no"?><svg width="30" height="30" viewBox="0 0 30 30" fill="none" xmlns="http://www.w3.org/2000/svg">
<path fill-rule="evenodd" clip-rule="evenodd" d="M10.5382 4.30202C7.13252 5.05667 4.44756 7.67479 3.60674 11.0609C2.96442 13.6477 2.96442 16.3523 3.60674 18.9391C4.44756 22.3252 7.13252 24.9433 10.5382 25.698L11.1055 25.8237C13.6707 26.3921 16.3293 26.3921 18.8945 25.8237L19.4618 25.698C22.8675 24.9433 25.5524 22.3252 26.3933 18.9391C27.0356 16.3523 27.0356 13.6477 26.3933 11.0609C25.5524 7.6748 22.8675 5.05667 19.4618 4.30202L18.8945 4.17631C16.3293 3.6079 13.6708 3.6079 11.1055 4.17631L10.5382 4.30202ZM10.6683 12.2664C10.2977 12.0016 9.78256 12.0875 9.51781 12.4582C9.25305 12.8289 9.3389 13.3441 9.70956 13.609L12.9227 15.9046C14.1654 16.7924 15.8347 16.7924 17.0773 15.9046L20.2905 13.609C20.6612 13.3441 20.747 12.8289 20.4823 12.4582C20.2175 12.0875 19.7024 12.0016 19.3317 12.2664L16.1186 14.562C15.4495 15.0401 14.5506 15.0401 13.8815 14.562L10.6683 12.2664Z" fill="white" fill-opacity="0.86"/>
</svg>
