<?xml version="1.0" encoding="UTF-8" standalone="no"?><svg width="30" height="30" viewBox="0 0 30 30" fill="none" xmlns="http://www.w3.org/2000/svg">
<path fill-rule="evenodd" clip-rule="evenodd" d="M18.7128 4.17962C16.2707 3.60679 13.7293 3.60679 11.2872 4.17962C7.76052 5.00687 5.00687 7.76052 4.17962 11.2872C3.60679 13.7293 3.60679 16.2708 4.17962 18.7128C5.00687 22.2395 7.76052 24.9931 11.2872 25.8204C13.7293 26.3932 16.2707 26.3932 18.7128 25.8204C22.2395 24.9931 24.9931 22.2395 25.8204 18.7128C26.3932 16.2707 26.3932 13.7293 25.8204 11.2872C24.9931 7.76052 22.2395 5.00687 18.7128 4.17962ZM10.6922 15C10.6922 12.6209 12.6208 10.6922 15 10.6922C17.3791 10.6922 19.3078 12.6209 19.3078 15C19.3078 17.3791 17.3791 19.3078 15 19.3078C12.6208 19.3078 10.6922 17.3791 10.6922 15ZM15 12.1281C13.4139 12.1281 12.1281 13.4139 12.1281 15C12.1281 16.5861 13.4139 17.8719 15 17.8719C16.5861 17.8719 17.8718 16.5861 17.8718 15C17.8718 13.4139 16.5861 12.1281 15 12.1281ZM19.7864 10.8119C20.4473 10.8119 20.983 10.2761 20.983 9.61527C20.983 8.9544 20.4473 8.41866 19.7864 8.41866C19.1255 8.41866 18.5898 8.9544 18.5898 9.61527C18.5898 10.2761 19.1255 10.8119 19.7864 10.8119Z" fill="white" fill-opacity="0.86"/>
</svg>
