<?xml version="1.0" encoding="UTF-8" standalone="no"?><svg width="30" height="30" viewBox="0 0 30 30" fill="none" xmlns="http://www.w3.org/2000/svg">
<path d="M25.8269 7.09291C26.0101 6.6688 25.5238 6.31247 25.1172 6.53182C24.5508 6.83738 23.9584 7.09362 23.3466 7.29737C23.1601 7.3595 22.9574 7.29779 22.8182 7.15885C22.2331 6.5749 21.4993 6.15859 20.6936 5.95697C19.783 5.72914 18.8245 5.78645 17.9476 6.12115C17.0707 6.45584 16.3177 7.05178 15.7905 7.82835C15.2634 8.60492 14.9874 9.52467 15 10.4632V10.9987C15 11.2698 14.7839 11.4927 14.5128 11.4877C12.882 11.4571 11.2765 11.0608 9.8158 10.3256C8.47335 9.64987 7.28801 8.70541 6.33162 7.55425C6.08328 7.25533 5.61196 7.30918 5.4943 7.67956C4.77547 9.94244 3.47982 16.2993 10.0983 19.7575C10.4459 19.9392 10.4866 20.43 10.1464 20.6251C8.81716 21.3876 7.35633 21.8844 5.84552 22.0922C5.32383 22.164 5.15825 22.9002 5.64766 23.0946C14.4294 26.583 24.2045 21.3959 24.2045 10.4325C24.2039 10.2367 24.1908 10.0412 24.1652 9.84729C24.1435 9.68181 24.1949 9.51406 24.3097 9.39291C24.9482 8.71913 25.461 7.94006 25.8269 7.09291Z" fill="white" fill-opacity="0.86"/>
</svg>
