<?xml version="1.0" encoding="UTF-8" standalone="no"?><svg width="24" height="24" viewBox="0 0 24 24" fill="none" xmlns="http://www.w3.org/2000/svg">
<path d="M8.47656 7.375C8.30956 7.375 8.03955 7.4375 7.81055 7.6875C7.58155 7.9365 6.93555 8.53958 6.93555 9.76758C6.93555 10.9956 7.83008 12.1826 7.95508 12.3496C8.07908 12.5156 9.68175 15.1152 12.2188 16.1152C14.3268 16.9462 14.7549 16.7822 15.2129 16.7402C15.6709 16.6992 16.6904 16.1377 16.8984 15.5547C17.1064 14.9717 17.1069 14.4702 17.0449 14.3672C16.9829 14.2632 16.8164 14.2012 16.5664 14.0762C16.3174 13.9512 15.0903 13.3486 14.8613 13.2656C14.6323 13.1826 14.4648 13.1406 14.2988 13.3906C14.1328 13.6406 13.6558 14.2012 13.5098 14.3672C13.3638 14.5342 13.2188 14.5566 12.9688 14.4316C12.7188 14.3056 11.9149 14.0414 10.9609 13.1914C10.2189 12.5304 9.71827 11.7148 9.57227 11.4648C9.42727 11.2158 9.55859 11.0791 9.68359 10.9551C9.79559 10.8431 9.93164 10.6636 10.0566 10.5176C10.1806 10.3716 10.2236 10.2676 10.3066 10.1016C10.3896 9.93556 10.3472 9.78906 10.2852 9.66406C10.2232 9.53906 9.73763 8.3065 9.51562 7.8125C9.32862 7.3975 9.13113 7.38786 8.95312 7.38086C8.80813 7.37486 8.64256 7.375 8.47656 7.375Z" stroke="white" stroke-width="1.5"/>
<path d="M12 21.5C17.2467 21.5 21.5 17.2467 21.5 12C21.5 6.75329 17.2467 2.5 12 2.5C6.75329 2.5 2.5 6.75329 2.5 12C2.5 13.8107 3.00658 15.5031 3.88573 16.9431L2.76389 21.2361L7.12356 20.1546C8.54908 21.0089 10.2172 21.5 12 21.5Z" stroke="white" stroke-width="1.5" stroke-linecap="round" stroke-linejoin="round"/>
</svg>
