<?xml version="1.0" encoding="UTF-8" standalone="no"?><svg width="30" height="30" viewBox="0 0 30 30" fill="none" xmlns="http://www.w3.org/2000/svg">
<path d="M26.2339 14.3365C25.8514 7.81166 19.9228 2.78303 13.0942 3.908C8.39181 4.68424 4.62315 8.49788 3.89192 13.2003C3.46443 15.9227 4.02694 18.4989 5.25316 20.6251L4.25192 24.3488C4.02692 25.1925 4.80313 25.9575 5.63562 25.7213L9.30305 24.7088C10.968 25.6875 12.9142 26.25 14.9954 26.25C21.3403 26.25 26.6052 20.6589 26.2339 14.3365ZM20.4966 19.1852C20.3953 19.3877 20.2715 19.5789 20.114 19.7589C19.8328 20.0626 19.5291 20.2876 19.1916 20.4226C18.8541 20.5689 18.4828 20.6364 18.0891 20.6364C17.5154 20.6364 16.8966 20.5014 16.2554 20.2201C15.6029 19.9389 14.9617 19.5676 14.3205 19.1064C13.668 18.6339 13.0605 18.1052 12.4755 17.5314C11.8905 16.9465 11.373 16.3277 10.9005 15.6865C10.4393 15.0452 10.068 14.404 9.79804 13.7628C9.52805 13.1215 9.39306 12.5028 9.39306 11.9178C9.39306 11.5353 9.46056 11.1641 9.59555 10.8266C9.73055 10.4779 9.94431 10.1629 10.2481 9.88162C10.608 9.52163 11.0018 9.35288 11.418 9.35288C11.5755 9.35288 11.733 9.38663 11.8792 9.45412C12.0255 9.52162 12.1605 9.62287 12.2617 9.76912L13.5667 11.6141C13.6679 11.7603 13.7467 11.8841 13.7917 12.0078C13.8479 12.1316 13.8704 12.244 13.8704 12.3565C13.8704 12.4915 13.8255 12.6266 13.7467 12.7616C13.668 12.8966 13.5667 13.0315 13.4317 13.1665L13.0042 13.6165C12.9367 13.684 12.9142 13.7515 12.9142 13.8415C12.9142 13.8865 12.9254 13.9315 12.9367 13.9765C12.9592 14.0215 12.9705 14.0553 12.9817 14.089C13.083 14.2803 13.263 14.5165 13.5104 14.809C13.7692 15.1015 14.0392 15.4052 14.3317 15.6977C14.6355 16.0015 14.9279 16.2715 15.2317 16.5302C15.5242 16.7777 15.7716 16.9465 15.9629 17.0477C15.9966 17.059 16.0304 17.0814 16.0642 17.0927C16.1092 17.1152 16.1542 17.1152 16.2104 17.1152C16.3117 17.1152 16.3792 17.0815 16.4467 17.014L16.8741 16.5865C17.0204 16.4402 17.1554 16.339 17.2792 16.2715C17.4142 16.1927 17.5379 16.1477 17.6841 16.1477C17.7966 16.1477 17.9091 16.1702 18.0329 16.2265C18.1566 16.2827 18.2916 16.3502 18.4266 16.4515L20.2941 17.7789C20.4403 17.8802 20.5415 18.0039 20.609 18.1389C20.6653 18.2852 20.6991 18.4202 20.6991 18.5777C20.6316 18.7689 20.5866 18.9827 20.4966 19.1852Z" fill="white" fill-opacity="0.86"/>
</svg>
